<?xml version="1.0" standalone="no"?><!DOCTYPE svg PUBLIC "-//W3C//DTD SVG 1.1//EN" "http://www.w3.org/Graphics/SVG/1.1/DTD/svg11.dtd"><svg t="1621258349310" class="icon" viewBox="0 0 1025 1024" version="1.1" xmlns="http://www.w3.org/2000/svg" p-id="9374" xmlns:xlink="http://www.w3.org/1999/xlink" width="128.125" height="128"><defs><style type="text/css"></style></defs><path d="M539.4496 409.6c19.2-19.2 44.8-6.4 102.4-32 57.6-19.2 211.2-115.2 256-153.6 44.8-38.4 44.8-70.4 83.2-89.6 38.4-25.6 44.8-38.4 44.8-44.8-6.4-19.2-115.2-6.4-172.8 12.8-51.2 12.8-236.8 128-275.2 192-38.4 64-25.6 70.4-44.8 96-19.2 25.6-25.6 38.4-32 32-6.4-6.4-6.4-19.2 12.8-44.8 12.8-25.6 38.4-64 44.8-89.6 6.4-25.6-12.8-128-19.2-166.4 0-38.4-19.2-121.6-44.8-121.6-25.6 0-102.4 76.8-115.2 140.8-6.4 57.6-25.6 160 6.4 224s51.2 51.2 57.6 76.8c12.8 25.6-12.8 96-57.6 134.4-38.4 38.4-51.2 51.2-70.4 44.8-12.8 0-25.6-32-12.8-51.2 12.8-19.2 38.4-44.8 38.4-70.4 0-25.6-12.8-128-19.2-153.6-12.8-25.6-32-83.2-32-108.8 0-19.2 6.4-76.8-12.8-83.2-38.4-6.4-89.6 57.6-115.2 153.6-32 89.6 6.4 166.4 19.2 185.6 12.8 12.8 38.4 51.2 64 70.4 19.2 12.8 38.4 19.2 38.4 51.2 6.4 32 6.4 44.8-12.8 83.2-19.2 38.4-96 172.8-121.6 192-6.4-51.2 6.4-32 12.8-70.4 0-38.4-6.4-51.2 6.4-83.2 6.4-32-32-160-70.4-192-19.2-19.2-12.8-64-25.6-64s-12.8 0-19.2 25.6c-6.4 25.6-64 115.2-51.2 192 12.8 76.8 19.2 83.2 32 102.4 12.8 19.2 32 25.6 44.8 57.6 12.8 32 12.8 44.8 32 57.6 12.8 6.4-25.6 108.8-25.6 108.8H129.8496s38.4-140.8 76.8-160c38.4-12.8 57.6 19.2 121.6 19.2 70.4 0 153.6-19.2 192-32s57.6-19.2 96-44.8c38.4-25.6 83.2-76.8 108.8-102.4 25.6-25.6 44.8-32 38.4-38.4-6.4-6.4-51.2-6.4-89.6 0-38.4 0-166.4 6.4-262.4 32-96 25.6-128 83.2-140.8 96-19.2 12.8-19.2 32-38.4 25.6-12.8-6.4-6.4-19.2 0-25.6 6.4-12.8 115.2-204.8 236.8-217.6 64 0 57.6 32 140.8 32 83.2 0 204.8-19.2 300.8-115.2 70.4-70.4 89.6-128 96-140.8 6.4-6.4-44.8-12.8-76.8-6.4-38.4 6.4-51.2 19.2-89.6 19.2-32 12.8-185.6 19.2-249.6 70.4-64 44.8-70.4 102.4-96 115.2-25.6 12.8-64 25.6-64 19.2-6.4-6.4 57.6-115.2 108.8-160z" p-id="9375"></path></svg>