<?xml version="1.0" encoding="utf-8"?>
<!-- Generator: Adobe Illustrator 25.1.0, SVG Export Plug-In . SVG Version: 6.00 Build 0)  -->
<svg version="1.1" id="图层_1" xmlns="http://www.w3.org/2000/svg" xmlns:xlink="http://www.w3.org/1999/xlink" x="0px" y="0px"
	 viewBox="0 0 130 87" style="enable-background:new 0 0 130 87;" xml:space="preserve">
<style type="text/css">
	.st0{fill:none;}
	.st1{fill:#231815;}
	.st2{opacity:0.5;fill:none;stroke:#000000;stroke-width:1.5;enable-background:new    ;}
</style>
<g>
	<rect id="canvas_background" x="-1.8" y="-2" class="st0" width="132" height="89"/>
</g>
<g>
	<path class="st1" d="M127,65.8c-0.1-0.1-3.6-3.9-9.1-7.7c-5.5-3.8-11.2-6.3-16.7-7.3c0,1.2-0.5,2.3-1.3,3.1
		c6.4,1,12.2,4.1,16.1,6.9c3.6,2.4,6.2,4.9,7.6,6.2c-3.4,3.4-14.7,13.4-27.9,13.4c-8.1,0-15.5-3.9-20.3-7.2
		c-3.6-2.4-6.2-4.9-7.6-6.2c0.2-0.2,0.3-0.3,0.5-0.5c-1.1-0.3-2.2-0.9-3-1.7c-0.6,0.6-0.9,1-1,1l-1,1.1l1,1.1
		c0.1,0.1,3.5,3.9,9.1,7.7c7.4,5.1,15.1,7.8,22.2,7.8s14.8-2.7,22.2-7.8c5.5-3.8,9-7.5,9.1-7.7l1-1.1L127,65.8z"/>
	<path class="st1" d="M66.8,65.9c0,0-0.6-0.7-1.7-1.7c-0.6,0.9-1.5,1.5-2.8,1.8c0.4,0.4,0.8,0.7,1,1C60,70.4,48.7,80.4,35.5,80.4
		c-8.1,0-15.5-3.9-20.3-7.2C11.6,70.8,9,68.3,7.6,67c3.1-3.1,13-11.8,24.9-13.2c0-0.1-0.1-0.1-0.1-0.2c-0.2-0.3-0.4-0.7-0.6-1.1
		c-0.3-0.6-0.5-1.2-0.6-1.8c-5.8,0.9-11.9,3.3-17.8,7.4c-5.5,3.8-9,7.5-9.1,7.7l-1,1.1l1,1c0.1,0.1,3.5,3.9,9.1,7.7
		c7.4,5.1,15.1,7.8,22.2,7.8c7.1,0,14.8-2.7,22.2-7.7c5.5-3.8,9-7.5,9.1-7.7l1-1.1L66.8,65.9z"/>
	<path class="st1" d="M64.1,65.2c0,0.1,0,0.1,0,0.2c-4.8-0.1-19.9-1-29.2-10.3c-5.7-5.7-8.2-13.7-9.3-19.4c-0.8-4.2-1-7.8-1-9.7
		c4.2,0,16.6,0.7,25.9,7.4c0.1-1.1,0.5-2.2,1.2-3c-4.6-3.1-10.3-5.4-16.9-6.6c-6.6-1.2-11.7-1-11.9-1l-1.4,0.1l-0.1,1.4
		c0,0.2-0.2,5.3,1,11.9C24,45,27.6,52.4,32.6,57.4S45,66,53.8,67.6c4.6,0.9,8.5,1,10.5,1h1.4l1.4-0.1l0.1-1.4c0-0.1,0-0.9,0-2.3
		C66.2,65.2,65.1,65.4,64.1,65.2z"/>
	<path class="st1" d="M109.8,24.3l-0.1-1.4l-1.4-0.1c-0.2,0-5.3-0.2-11.9,1c-6.5,1.2-12.3,3.4-16.9,6.6c0.7,0.9,1.1,2.1,0.7,3.5
		c5.3-4.1,11.8-6,16.6-7c4.2-0.8,7.8-1,9.7-1c0,4.8-0.9,19.9-10.2,29.2c-5.8,5.8-13.8,8.3-19.4,9.3c-4.2,0.8-7.8,1-9.7,1
		c0-0.2,0-0.4,0-0.6c-1.1,0.3-2.2,0.2-3.3-0.2c0,1.5,0,2.4,0,2.5l0.1,1.4l1.4,0.1h1.4c2,0,5.9-0.1,10.5-1
		c8.8-1.6,16.2-5.2,21.2-10.2c5.1-5,8.6-12.4,10.2-21.2C110,29.6,109.8,24.5,109.8,24.3z"/>
	<path id="svg_8" class="st1" d="M65.6,69.1l-1.1-1c-0.2-0.1-3.9-3.6-7.7-9.1C51.7,51.6,49,43.9,49,36.8s2.7-14.8,7.8-22.2
		c3.8-5.6,7.6-9,7.7-9.1l1.1-1l1.1,1c0.2,0.1,3.9,3.6,7.7,9.1c5.1,7.4,7.8,15.1,7.8,22.2S79.5,51.6,74.4,59c-3.8,5.6-7.6,9-7.7,9.1
		L65.6,69.1z M65.6,9c-1.3,1.4-3.8,4-6.2,7.6c-3.3,4.7-7.2,12.1-7.2,20.2c0,13.2,10,24.5,13.4,27.9c1.3-1.4,3.8-4,6.2-7.6
		c3.3-4.8,7.2-12.2,7.2-20.3s-3.9-15.6-7.2-20.3C69.4,13,67,10.3,65.6,9z"/>
	<path id="svg_9" class="st2" d="M44.7,40.2"/>
</g>
</svg>
