<?xml version="1.0" encoding="utf-8"?>
<!-- Generator: Adobe Illustrator 25.1.0, SVG Export Plug-In . SVG Version: 6.00 Build 0)  -->
<svg version="1.1" id="图层_1" xmlns="http://www.w3.org/2000/svg" xmlns:xlink="http://www.w3.org/1999/xlink" x="0px" y="0px"
	 viewBox="0 0 128 128" style="enable-background:new 0 0 128 128;" xml:space="preserve">
<style type="text/css">
	.st0{fill:#231815;}
	.st1{fill:#FFFFFF;}
</style>
<path class="st0" d="M95.5,83.5c-7.1,0-14.8-2.7-22.2-7.8c-5.6-3.8-9-7.6-9.1-7.7l-1-1.1l1-1.1c0.1-0.2,3.6-3.9,9.1-7.7
	c7.4-5.1,15.1-7.8,22.2-7.8s14.8,2.7,22.2,7.8c5.5,3.8,9,7.6,9.1,7.7l1,1.1l-1,1.1c-0.1,0.2-3.6,3.9-9.1,7.7
	C110.3,80.8,102.6,83.5,95.5,83.5z M67.6,67c1.4,1.3,4,3.8,7.6,6.2c4.8,3.3,12.2,7.2,20.3,7.2c13.2,0,24.5-10,27.9-13.4
	c-1.4-1.3-4-3.8-7.6-6.2c-4.8-3.3-12.2-7.2-20.3-7.2C82.3,53.6,71,63.6,67.6,67z"/>
<path class="st0" d="M35.3,83.5c-7.1,0-14.8-2.7-22.2-7.8c-5.6-3.8-9-7.6-9.1-7.7L3,67l1-1.1c0.1-0.2,3.6-3.9,9.1-7.7
	c7.4-5.1,15.1-7.8,22.2-7.8s14.8,2.7,22.2,7.8c5.5,3.8,9,7.6,9.1,7.7l1,1.1l-1,1.1c-0.1,0.2-3.6,3.9-9.1,7.7
	C50.1,80.8,42.4,83.5,35.3,83.5z M7.4,67c1.4,1.3,4,3.8,7.6,6.2c4.8,3.3,12.2,7.2,20.3,7.2c13.2,0,24.5-10,27.9-13.4
	c-1.4-1.3-4-3.8-7.6-6.2c-4.8-3.3-12.2-7.2-20.3-7.2C22.1,53.6,10.8,63.6,7.4,67z"/>
<path class="st1" d="M22.8,24.4c0,0,20.1-1,31.9,10.7S65.4,67,65.4,67s-20.1,1-31.9-10.7S22.8,24.4,22.8,24.4z"/>
<path class="st0" d="M64.1,68.6c-2,0-5.9-0.1-10.5-1c-8.8-1.6-16.2-5.2-21.2-10.2S23.8,45,22.2,36.2c-1.2-6.6-1-11.7-1-11.9l0.1-1.4
	l1.4-0.1c0.2,0,5.3-0.2,11.9,1c8.8,1.6,16.2,5.2,21.2,10.2S64.4,46.3,66,55.2c1.2,6.6,1,11.7,1,11.9l-0.1,1.4l-1.4,0.1
	C65.4,68.6,64.9,68.6,64.1,68.6z M24.4,26c0,1.9,0.2,5.5,1,9.7c1.1,5.7,3.6,13.7,9.3,19.4c9.3,9.3,24.4,10.2,29.2,10.3
	c0-1.9-0.2-5.5-1-9.7C61.8,50,59.3,42,53.5,36.2C44.2,26.9,29.1,26,24.4,26z"/>
<path class="st1" d="M108,24.4c0,0,1,20.1-10.7,31.9S65.4,67,65.4,67s-1-20.1,10.7-31.9S108,24.4,108,24.4z"/>
<path class="st0" d="M109.6,24.3l-0.1-1.4l-1.4-0.1c-0.2,0-5.3-0.2-11.9,1C87.4,25.4,80,28.9,75,34c-5,5-8.6,12.4-10.2,21.2
	c-1.2,6.6-1,11.7-1,11.9l0.1,1.4l1.4,0.1c0.1,0,0.5,0,1.4,0c2,0,5.9-0.1,10.5-1C86,66,93.4,62.4,98.4,57.4c5.1-5,8.6-12.4,10.2-21.2
	C109.8,29.6,109.6,24.5,109.6,24.3z M96.2,55.1c-5.8,5.8-13.8,8.3-19.4,9.3c-4.2,0.8-7.8,1-9.7,1c0-4.8,1-19.8,10.3-29.2
	C83,30.5,91,28,96.7,26.9c4.2-0.8,7.8-1,9.7-1C106.4,30.7,105.5,45.8,96.2,55.1z"/>
<path class="st1" d="M65.4,6.7c0,0,15,13.5,15,30.1S65.4,67,65.4,67s-15-13.5-15-30.1S65.4,6.7,65.4,6.7z"/>
<path class="st0" d="M65.4,69.1l-1.1-1c-0.2-0.1-3.9-3.6-7.7-9.1c-5.1-7.4-7.8-15.1-7.8-22.2s2.7-14.8,7.8-22.2
	c3.8-5.6,7.6-9,7.7-9.1l1.1-1l1.1,1c0.2,0.1,3.9,3.6,7.7,9.1c5.1,7.4,7.8,15.1,7.8,22.2s-2.7,14.8-7.8,22.2c-3.8,5.6-7.6,9-7.7,9.1
	L65.4,69.1z M65.4,9c-1.3,1.4-3.8,4-6.2,7.6C55.9,21.3,52,28.7,52,36.8c0,13.2,10,24.5,13.4,27.9c1.3-1.4,3.8-4,6.2-7.6
	c3.3-4.8,7.2-12.2,7.2-20.3s-3.9-15.6-7.2-20.3C69.2,13,66.8,10.3,65.4,9z"/>
</svg>
