<?xml version="1.0" standalone="no"?><!DOCTYPE svg PUBLIC "-//W3C//DTD SVG 1.1//EN" "http://www.w3.org/Graphics/SVG/1.1/DTD/svg11.dtd"><svg t="1621258471016" class="icon" viewBox="0 0 1024 1024" version="1.1" xmlns="http://www.w3.org/2000/svg" p-id="12811" xmlns:xlink="http://www.w3.org/1999/xlink" width="128" height="128"><defs><style type="text/css"></style></defs><path d="M417.724335 434.715823c0 0 30.749328-31.608905 58.95574-105.801674 62.079894-163.196873-42.950208-247.852948-61.679781-243.899916-16.517185 3.475148-114.142643 128.737036-55.737442 255.790734C391.968741 412.032194 417.724335 434.715823 417.724335 434.715823zM416.536276 588.621075c0 0-29.890774 28.279067-55.973826 95.558379-52.807716 135.867434 39.000246 250.959705 57.437154 254.835989 16.73515 3.659343 129.707131-90.214674 60.216453-245.656933C442.839339 614.228289 416.536276 588.621075 416.536276 588.621075zM265.099239 584.815399c-119.317503 46.49801-125.572974 166.894078-115.950825 179.883927 8.323573 11.960403 133.033899 31.787984 187.673333-95.705736 30.397311-71.225181 30.565133-105.941867 30.565133-105.941867S327.621201 560.417733 265.099239 584.815399zM254.253216 565.242622c66.726727-29.0445 89.481987-53.301973 89.481987-53.301973s-27.127847-28.788673-88.86084-53.92312C136.81962 410.385694 63.376934 493.687936 63.192739 508.832867 62.882678 522.404977 141.079644 614.484116 254.253216 565.242622zM270.494109 444.190615c70.459748 21.986757 103.953583 18.508539 103.953583 18.508539s-1.849114-41.376363-34.262338-104.739483c-64.804958-126.944204-179.440835-106.309234-188.989305-93.139284C142.780379 276.492218 151.690306 406.947386 270.494109 444.190615zM595.555509 597.546352c-80.902588-32.849152-126.780475-32.19219-126.780475-32.19219s0.202615 36.547381 34.920324 116.77561c68.355831 157.858284 262.046205 185.513134 277.43059 173.370583C798.777981 842.070484 787.235087 674.845878 595.555509 597.546352zM609.898169 447.335235c-81.948407 32.158421-114.505917 64.23907-114.505917 64.23907s27.290553 27.074635 114.943892 63.620993c181.711552 75.692936 350.929558-46.022173 350.470093-68.303642C960.329377 481.725486 799.052227 373.070834 609.898169 447.335235zM587.910389 432.591439c188.147124-63.287395 204.831109-244.083088 189.04354-256.267595-17.081027-13.387915-195.773825 8.527211-277.226952 168.542624-36.674271 71.885214-38.57762 115.457592-38.57762 115.457592S498.939031 462.153732 587.910389 432.591439z" p-id="12812"></path></svg>